# xmcd
#
# Track frame offsets:
#	150
#	33883
#	67973
#	98162
#	111723
#	137543
#	177512
#	193426
#	215284
#	253162
#	281710
#	310575
#	325061
#
# Disc length: 4451 seconds
#
# Revision: 1
# Processed by: cddbd v1.5.2PL0 Copyright (c) Steve Scherf et al.
# Submitted via: audiograbber 1.83.01
#
DISCID=c411610d
DTITLE=Livin' Blues - Live'75 
DYEAR=1975
DGENRE=Blues Rock
TTITLE0=Black Spider Woman
TTITLE1=I'm A Rambler
TTITLE2=Hoochie Coochie Man
TTITLE3=Crazy Joe
TTITLE4=I Wonder
TTITLE5=L.B.Boogie
TTITLE6=Boney Marony
TTITLE7=Rock and Roll Hoochie Coo
TTITLE8=I'm Coming Home
TTITLE9=See My Baby Drive
TTITLE10=Back Stage
TTITLE11=Boogie Woogie Woman
TTITLE12=Richochet
EXTD=
EXTT0=
EXTT1=
EXTT2=
EXTT3=
EXTT4=
EXTT5=
EXTT6=
EXTT7=
EXTT8=
EXTT9=
EXTT10=
EXTT11=
EXTT12=
PLAYORDER=
